<?xml version="1.0" standalone="no"?>
<!DOCTYPE svg PUBLIC "-//W3C//DTD SVG 20010904//EN"
 "http://www.w3.org/TR/2001/REC-SVG-20010904/DTD/svg10.dtd">
<svg version="1.0" xmlns="http://www.w3.org/2000/svg"
 width="1000.000000pt" height="1000.000000pt" viewBox="0 0 1000.000000 1000.000000"
 preserveAspectRatio="xMidYMid meet">
<metadata>
Created by potrace 1.11, written by Peter Selinger 2001-2013
</metadata>
<g transform="translate(0.000000,1000.000000) scale(0.100000,-0.100000)"
fill="#000000" stroke="none">
<path d="M2350 5000 l0 -2200 2645 0 2645 0 0 2200 0 2200 -2645 0 -2645 0 0
-2200z m5130 0 l0 -2040 -2485 0 -2485 0 0 2040 0 2040 2485 0 2485 0 0 -2040z"/>
<path d="M4265 4714 c-296 -48 -495 -242 -557 -542 -16 -79 -19 -121 -15 -227
6 -149 22 -215 79 -335 33 -69 56 -100 122 -165 138 -136 269 -189 471 -189
235 -1 423 86 545 252 105 141 145 293 138 516 -4 126 -8 152 -38 238 -75 223
-231 374 -452 434 -55 15 -240 26 -293 18z m228 -179 c168 -44 277 -149 335
-323 23 -69 26 -93 26 -227 1 -162 -10 -219 -61 -319 -35 -68 -135 -167 -203
-198 -227 -106 -492 -35 -622 166 -65 100 -83 177 -82 341 1 214 36 325 135
430 114 121 306 173 472 130z"/>
<path d="M2670 4615 l0 -85 235 0 235 0 0 -630 0 -630 95 0 95 0 0 630 0 630
235 0 235 0 0 85 0 85 -565 0 -565 0 0 -85z"/>
<path d="M5210 3985 l0 -715 90 0 90 0 2 601 3 602 205 -601 205 -602 85 0 85
0 205 591 205 590 3 -590 2 -591 90 0 90 0 0 715 0 716 -126 -3 -127 -3 -104
-305 c-58 -168 -152 -442 -208 -610 -57 -167 -106 -298 -110 -290 -3 8 -94
283 -203 610 l-199 595 -141 3 -142 3 0 -716z"/>
<path d="M6910 3985 l0 -715 90 0 90 0 0 715 0 715 -90 0 -90 0 0 -715z"/>
<path d="M2700 2150 l0 -360 45 0 45 0 0 360 0 360 -45 0 -45 0 0 -360z"/>
<path d="M2950 2150 l0 -360 40 0 40 0 0 280 c0 154 3 280 8 280 4 0 90 -126
191 -280 l184 -280 48 0 49 0 0 360 0 360 -45 0 -45 0 -2 -281 -3 -282 -188
282 -187 281 -45 0 -45 0 0 -360z"/>
<path d="M3620 2470 l0 -40 120 0 120 0 0 -320 0 -320 45 0 45 0 0 320 0 320
120 0 120 0 0 40 0 40 -285 0 -285 0 0 -40z"/>
<path d="M4290 2150 l0 -360 265 0 265 0 0 40 0 40 -220 0 -220 0 0 125 0 125
200 0 200 0 0 40 0 40 -200 0 -200 0 0 115 0 115 210 0 210 0 0 40 0 40 -255
0 -255 0 0 -360z"/>
<path d="M4950 2151 l0 -361 45 0 45 0 0 160 0 160 85 0 c57 0 96 -5 115 -15
33 -17 78 -75 164 -212 l59 -93 53 0 c30 0 54 3 54 7 0 21 -159 250 -197 283
-30 26 -41 41 -32 44 8 3 31 10 51 16 162 50 171 286 13 351 -19 8 -105 14
-242 17 l-213 4 0 -361z m404 265 c18 -8 41 -24 50 -37 20 -29 21 -91 1 -128
-25 -50 -66 -61 -224 -61 l-141 0 0 120 0 120 140 0 c98 0 151 -4 174 -14z"/>
<path d="M5700 2150 l0 -360 45 0 45 0 0 360 0 360 -45 0 -45 0 0 -360z"/>
<path d="M5950 2150 l0 -360 265 0 265 0 0 40 0 40 -220 0 -220 0 0 125 0 125
200 0 200 0 0 40 0 40 -200 0 -200 0 0 115 0 115 210 0 210 0 0 40 0 40 -255
0 -255 0 0 -360z"/>
<path d="M6620 2151 l0 -361 45 0 45 0 0 160 0 160 85 0 c57 0 96 -5 115 -15
33 -17 78 -75 164 -212 l59 -93 53 0 c30 0 54 3 54 7 0 21 -159 250 -197 283
-30 26 -41 41 -32 44 8 3 31 10 51 16 162 50 171 286 13 351 -19 8 -105 14
-242 17 l-213 4 0 -361z m404 265 c18 -8 41 -24 50 -37 20 -29 21 -91 1 -128
-25 -50 -66 -61 -224 -61 l-141 0 0 120 0 120 140 0 c98 0 151 -4 174 -14z"/>
</g>
</svg>
